# xmcd
#
# Track frame offsets:
#	150
#	7605
#	21724
#	52574
#	71469
#	100940
#	123086
#	155441
#	177862
#	197321
#	217512
#
# Disc length: 3218 seconds
#
# Revision: 1
# Processed by: cddbd v1.4PL0 Copyright (c) Steve Scherf et al.
# Submitted via: CDmax 2.0
#
DISCID=750c900b
DTITLE=Acoustic Hot Tuna - Jorma Kaukonen and Jack Casady - Live in Mt. Tabor
DTITLE=, NJ - 11.24.2001 - d1
DYEAR=2001
DGENRE=Blues
TTITLE0=Intro
TTITLE1=Let Us Get Together Right Down Here
TTITLE2=Re-Enlistment Blues
TTITLE3=How Long Blues
TTITLE4=Death Don't Have No Mercy
TTITLE5=Do Not Go Gentle
TTITLE6=Serpent Of Dreams
TTITLE7=Living In The Moment
TTITLE8=Embryonic Journey
TTITLE9=Too Many Years
TTITLE10=Sea Child
EXTD=Billed as "Jack and Jorma, The Original Acoustic Hot Tuna"\nThe Tabernacle
EXTD=, \nMount Tabor, NJ \n11-24-01\n\n*w/John Sebastian - Harp\n\nDsbd/AUD m
EXTD=atrix > DAT > CDR\n\nDisc One\n01. Intro \n02. Let Us Get Together Righ
EXTD=t Down Here\n03. Re-Enlistment Blues\n04. How Long Blues\n05. Death Don'
EXTD=t Have No Mercy\n06. Do Not Go Gentle\n07. Serpent Of Dreams\n08. Livin
EXTD=g In The Moment\n09. Embryonic Journey\n10. Too Many Years\n11. Sea Chil
EXTD=d\n\nDisc Two\n01. 99 Year Blues *\n02. I Am the Light Of This World *\n
EXTD=03. Waiting For A Train *\n04. Uncle Sam Blues *\n05. Trouble In Mind *\
EXTD=n06. A Life Well Lived *\n07. That'll Never Happen No More *\n08. [Joh
EXTD=n tells a story]\n09. San Francisco Bay Blues *\n10. I Know You Rider *\
EXTD=n\nEncore:\n11. Keep Your Lamps Trimmed And Burning
EXTT0=
EXTT1=
EXTT2=
EXTT3=
EXTT4=
EXTT5=
EXTT6=
EXTT7=
EXTT8=
EXTT9=
EXTT10=
PLAYORDER=
